<svg xmlns="http://www.w3.org/2000/svg" xmlns:xlink="http://www.w3.org/1999/xlink" viewBox="0 0 1929.34 456.39"><defs><style>.cls-1{fill:#44a6f1;}.cls-2{fill:url(#linear-gradient);}.cls-3{fill:#79bc74;}</style><linearGradient id="linear-gradient" x1="162.67" y1="147.74" x2="162.67" y2="462.75" gradientUnits="userSpaceOnUse"><stop offset="0" stop-color="#88c250"/><stop offset="0.12" stop-color="#80bf64"/><stop offset="0.38" stop-color="#6ab696"/><stop offset="0.48" stop-color="#61b2ac"/><stop offset="1" stop-color="#44a6f1"/></linearGradient></defs><g id="Layer_2" data-name="Layer 2"><g id="Layer_1-2" data-name="Layer 1"><path class="cls-1" d="M464.29,166.54V290.6a19.3,19.3,0,0,1-19.05,19.57H346.4a42.56,42.56,0,0,1-37.21-22.3A338.25,338.25,0,0,0,187.84,161.14a51.7,51.7,0,0,1-24.94-44.28V19.61C162.9,8.82,171.47,0,182,0H302.47c10.53,0,19,8.81,19,19.61V146.93H445.24C455.76,146.93,464.29,155.71,464.29,166.54Z"/><path class="cls-2" d="M162.89,328V430.49a25.9,25.9,0,0,0,25.9,25.9H299.43a25.91,25.91,0,0,0,25.9-25.9V367.66c0-42.46-44.68-101.2-66.41-125.82-53.49-60.63-107-94.1-212.21-94.1H6.34c35.26,66.61,125,103.26,183,105.45C124,254,36.53,220.07,0,152.86c2.28,94.4,67.46,150.55,162.89,157.33,57.06,4.05,112.59,2.41,132,31.2,9.82,14.55,8.87,27.61,8.87,45.44l0,43.66a4.32,4.32,0,0,1-4.32,4.31H188.79a4.31,4.31,0,0,1-4.32-4.31V358.06C184.47,330.38,162.89,328,162.89,328Z"/><path class="cls-3" d="M723.46,301.16Q712,316,691.83,323.69t-45.93,7.65q-26.43,0-46.8-12t-31.41-34.3Q556.64,262.75,556.2,233V216.52q0-47.67,22.83-74.46t63.69-26.79q35.1,0,55.75,17.4t24.85,50.05H687.49q-6.06-38-44-38-24.56,0-37.33,17.68t-13.22,51.88v16.16q0,34.05,14.37,52.89t39.94,18.83q28,0,39.86-12.71V248.29H643.73V220.56h79.73Z"/><path class="cls-3" d="M842,204.24a86.89,86.89,0,0,0-14.3-1.15q-24.12,0-32.5,18.48V328.45H760.15V172.18h33.5l.87,17.47q12.71-20.35,35.24-20.36a32.79,32.79,0,0,1,12.42,2Z"/><path class="cls-3" d="M930.29,331.34q-33.36,0-54.09-21t-20.73-56V250q0-23.4,9-41.82a68.79,68.79,0,0,1,25.35-28.67,67,67,0,0,1,36.39-10.25q31.92,0,49.33,20.36T993,247.28v14.16H890.86q1.59,19.35,12.92,30.62t28.53,11.26q24.12,0,39.29-19.5l18.92,18.06a63.17,63.17,0,0,1-25.06,21.74Q949.79,331.35,930.29,331.34ZM926.1,197.45q-14.45,0-23.33,10.11t-11.33,28.17h66.87v-2.6q-1.15-17.62-9.39-26.65T926.1,197.45Z"/><path class="cls-3" d="M1089,331.34q-33.36,0-54.09-21t-20.72-56V250q0-23.4,9-41.82a68.79,68.79,0,0,1,25.35-28.67,67.06,67.06,0,0,1,36.4-10.25q31.92,0,49.32,20.36t17.41,57.63v14.16H1049.59q1.59,19.35,12.93,30.62T1091,303.32q24.12,0,39.29-19.5l18.92,18.06a63.17,63.17,0,0,1-25.06,21.74Q1108.51,331.35,1089,331.34Zm-4.19-133.89q-14.44,0-23.32,10.11t-11.34,28.17H1117v-2.6q-1.15-17.62-9.38-26.65T1084.83,197.45Z"/><path class="cls-3" d="M1211.5,172.18l1,18q17.34-20.94,45.5-20.94,48.83,0,49.69,55.89V328.45h-35.1V227.21q0-14.88-6.43-22t-21-7.15q-21.24,0-31.63,19.21V328.45h-35.1V172.18Z"/><path class="cls-1" d="M1507.3,260q-3.16,33.66-24.84,52.5t-57.63,18.85q-25.12,0-44.27-11.91T1351,285.56q-10.41-22-10.84-51V214.93q0-29.76,10.55-52.43T1381,127.55q19.71-12.28,45.57-12.28,34.8,0,56,18.85t24.69,53.37h-36.39q-2.61-22.68-13.22-32.72t-31.12-10q-23.83,0-36.62,17.42t-13.07,51.11v18.65q0,34.11,12.2,52t35.75,17.93q21.53,0,32.36-9.68T1470.91,260Z"/><path class="cls-1" d="M1629.93,328.45q-2.31-4.47-4-14.58a54.66,54.66,0,0,1-41,17.47q-23.55,0-38.42-13.43t-14.88-33.22q0-25,18.56-38.35T1603.21,233h21.52V222.73q0-12.14-6.79-19.43T1597.29,196q-12,0-19.65,6T1570,217.24h-35.1q0-12.86,8.52-24.05t23.19-17.55a81.49,81.49,0,0,1,32.71-6.35q27.43,0,43.76,13.79t16.76,38.78v70.49q0,21.09,5.92,33.65v2.45Zm-38.56-25.27a40,40,0,0,0,19.57-5.06,33.77,33.77,0,0,0,13.79-13.57V255.08h-18.92q-19.5,0-29.32,6.79t-9.82,19.21q0,10.11,6.71,16.1T1591.37,303.18Z"/><path class="cls-1" d="M1778.41,204.24a86.89,86.89,0,0,0-14.3-1.15q-24.12,0-32.5,18.48V328.45h-35.1V172.18H1730l.87,17.47q12.7-20.35,35.24-20.36a32.79,32.79,0,0,1,12.42,2Z"/><path class="cls-1" d="M1866.66,331.34q-33.37,0-54.09-21t-20.73-56V250q0-23.4,9-41.82a68.66,68.66,0,0,1,25.35-28.67,67,67,0,0,1,36.39-10.25q31.92,0,49.33,20.36t17.4,57.63v14.16H1827.23q1.57,19.35,12.92,30.62t28.53,11.26q24.12,0,39.29-19.5l18.92,18.06a63.24,63.24,0,0,1-25.06,21.74Q1886.16,331.35,1866.66,331.34Zm-4.19-133.89q-14.45,0-23.33,10.11t-11.34,28.17h66.88v-2.6q-1.15-17.62-9.39-26.65T1862.47,197.45Z"/></g></g></svg>